<svg xmlns="http://www.w3.org/2000/svg" viewBox="0 0 200 200" fill="none" aria-hidden="true">
  <defs>
    <linearGradient id="skySoft" x1="0" y1="0" x2="0" y2="1">
      <stop offset="0%" stop-color="#f4efe3" stop-opacity="0"/>
      <stop offset="100%" stop-color="#d7d0bf" stop-opacity="0.35"/>
    </linearGradient>
  </defs>
  <rect width="200" height="200" fill="url(#skySoft)"/>
  <g class="layer-soil">
    <path class="soil-fill" d="M28 168c18-22 48-34 72-34s54 12 72 34c-24 8-48 12-72 12s-48-4-72-12z" opacity=".9"/>
    <path d="M44 164c14-12 36-20 56-20s42 8 56 20" stroke="rgba(40,30,20,.18)" stroke-width="1.2" stroke-linecap="round"/>
    <path d="M62 170c10-4 24-7 38-7s28 3 38 7" stroke="rgba(40,30,20,.1)" stroke-width="1" stroke-linecap="round"/>
  </g>
  <g class="layer-light">
    <circle cx="150" cy="38" r="30" fill="#f0d789" opacity=".25"/>
  </g>
  <g class="layer-alive sway">
    <path d="M100 152C99 138 101 124 100.5 112" stroke="#3f8a66" stroke-width="2.4" stroke-linecap="round"/>
    <path d="M100.5 118c7-2 12 2 11 9-6 1-10-2-11-9z" fill="#3f8a66"/>
    <path d="M100.5 118c-1 0-2 0-2 .2" stroke="#2f6b4e" stroke-width=".6"/>
  </g>
  <g class="layer-dry sway">
    <path d="M104 128c4 1 6 5 4 8" stroke="#c4a84a" stroke-width="1.5" stroke-linecap="round"/>
    <path d="M102 122c3-1 5 1 5 3" stroke="#b8954a" stroke-width="1.2" stroke-linecap="round"/>
  </g>
  <g class="layer-dead sway">
    <path d="M97 134c-3 2-4 5-2 7" stroke="#3a3228" stroke-width="1.5" stroke-linecap="round"/>
  </g>
  <g class="layer-poison">
    <circle cx="97" cy="140" r="1.5" fill="#1a1410"/>
    <circle cx="104" cy="124" r="1.2" fill="#2a2018"/>
    <circle cx="99" cy="116" r="1.1" fill="#1a1410"/>
  </g>

</svg>
