<svg xmlns="http://www.w3.org/2000/svg" viewBox="0 0 200 220" fill="none" aria-hidden="true">
  <defs>
    <radialGradient id="glow-3" cx="72%" cy="16%" r="42%">
      <stop offset="0%" stop-color="#ffe7a8" stop-opacity=".55"/>
      <stop offset="55%" stop-color="#ffe7a8" stop-opacity=".12"/>
      <stop offset="100%" stop-color="#ffe7a8" stop-opacity="0"/>
    </radialGradient>
    <linearGradient id="soilGrad-3" x1="0" y1="0" x2="0" y2="1">
      <stop offset="0%" stop-color="#8a7355"/>
      <stop offset="100%" stop-color="#5d4a34"/>
    </linearGradient>
    <linearGradient id="leafA-3" x1="0" y1="0" x2="1" y2="1">
      <stop offset="0%" stop-color="#4fa56f"/>
      <stop offset="100%" stop-color="#2d6e4c"/>
    </linearGradient>
    <linearGradient id="leafB-3" x1="0" y1="0" x2="0" y2="1">
      <stop offset="0%" stop-color="#67b87f"/>
      <stop offset="100%" stop-color="#357a55"/>
    </linearGradient>
    <filter id="soft-3" x="-20%" y="-20%" width="140%" height="140%">
      <feGaussianBlur stdDeviation="1.1"/>
    </filter>
  </defs>

  <g class="layer-light"><circle cx="148" cy="30" r="44" fill="url(#glow-3)"/></g>
  <g class="layer-soil">
    <ellipse cx="100" cy="192" rx="78" ry="9" fill="#2a241c" opacity=".10"/>
    <path fill="url(#soilGrad-3)" d="M34 178c16-20 42-31 66-31s50 11 66 31c-22 9-44 13-66 13s-44-4-66-13z"/>
    <path d="M48 176c14-12 34-19 52-19s38 7 52 19" stroke="#3f3428" stroke-opacity=".22" stroke-width="1.2" stroke-linecap="round"/>
    <path d="M62 183c11-4 24-6 38-6s27 2 38 6" stroke="#fff" stroke-opacity=".08" stroke-width="1" stroke-linecap="round"/>
  </g>
  <g class="layer-alive sway">
    <path d="M100 172C97 146 103 118 100 92" stroke="#2d6549" stroke-width="3" stroke-linecap="round"/>
    <path d="M100 108c12-4 20 5 17 16-10 2.5-15.5-5-17-16z" fill="url(#leafA-3)"/>
    <path d="M100 122c-11-2-17 7-13.5 16 8.5 1.5 13-6 13.5-16z" fill="url(#leafB-3)"/>
    <path d="M100 98c7-1.5 11 3.5 10 9" stroke="#1f4d37" stroke-width=".85" stroke-linecap="round" opacity=".4"/>
    <path d="M100 122c-6 .2-10 2-12 5" stroke="#1f4d37" stroke-width=".75" stroke-linecap="round" opacity=".35"/>
    <circle cx="100" cy="170" r="3.2" fill="#3f8a66" opacity=".35"/>
  </g>
  <g class="layer-dry sway">
    <path d="M112 128c7 3 9.5 10 4.5 14-3.5-4-6-9-4.5-14z" fill="#c4a84a"/>
    <path d="M92 138c-5 3.5-6 9-2.5 11.5" stroke="#b8954a" stroke-width="1.5" stroke-linecap="round"/>
  </g>
  <g class="layer-dead sway">
    <path d="M95 114c-6 1.5-8.5 7.5-5.5 11 3.5-1.5 6-5.5 5.5-11z" fill="#4a4032"/>
    <path d="M104 148c2.5 3.5 2.5 7 0 9.5" stroke="#2a221a" stroke-width="1.5" stroke-linecap="round"/>
  </g>
  <g class="layer-poison">
    <circle cx="95" cy="154" r="1.6" fill="#15110d"/>
    <circle cx="108" cy="126" r="1.3" fill="#1c1610"/>
    <circle cx="97" cy="106" r="1.2" fill="#15110d"/>
    <circle cx="104" cy="100" r="1" fill="#241c14"/>
  </g>

</svg>
