<svg xmlns="http://www.w3.org/2000/svg" viewBox="0 0 200 220" fill="none" aria-hidden="true">
  <defs>
    <radialGradient id="glow-4" cx="72%" cy="16%" r="42%">
      <stop offset="0%" stop-color="#ffe7a8" stop-opacity=".55"/>
      <stop offset="55%" stop-color="#ffe7a8" stop-opacity=".12"/>
      <stop offset="100%" stop-color="#ffe7a8" stop-opacity="0"/>
    </radialGradient>
    <linearGradient id="soilGrad-4" x1="0" y1="0" x2="0" y2="1">
      <stop offset="0%" stop-color="#8a7355"/>
      <stop offset="100%" stop-color="#5d4a34"/>
    </linearGradient>
    <linearGradient id="leafA-4" x1="0" y1="0" x2="1" y2="1">
      <stop offset="0%" stop-color="#4fa56f"/>
      <stop offset="100%" stop-color="#2d6e4c"/>
    </linearGradient>
    <linearGradient id="leafB-4" x1="0" y1="0" x2="0" y2="1">
      <stop offset="0%" stop-color="#67b87f"/>
      <stop offset="100%" stop-color="#357a55"/>
    </linearGradient>
    <filter id="soft-4" x="-20%" y="-20%" width="140%" height="140%">
      <feGaussianBlur stdDeviation="1.1"/>
    </filter>
  </defs>

  <g class="layer-light"><circle cx="146" cy="28" r="46" fill="url(#glow-4)"/></g>
  <g class="layer-soil">
    <ellipse cx="100" cy="192" rx="78" ry="9" fill="#2a241c" opacity=".10"/>
    <path fill="url(#soilGrad-4)" d="M34 178c16-20 42-31 66-31s50 11 66 31c-22 9-44 13-66 13s-44-4-66-13z"/>
    <path d="M48 176c14-12 34-19 52-19s38 7 52 19" stroke="#3f3428" stroke-opacity=".22" stroke-width="1.2" stroke-linecap="round"/>
    <path d="M62 183c11-4 24-6 38-6s27 2 38 6" stroke="#fff" stroke-opacity=".08" stroke-width="1" stroke-linecap="round"/>
  </g>
  <g class="layer-alive sway">
    <path d="M100 174C99 140 101 110 102 82" stroke="#5a4634" stroke-width="3.6" stroke-linecap="round"/>
    <path d="M102 118C88 108 76 112 68 118" stroke="#5a4634" stroke-width="2.2" stroke-linecap="round"/>
    <path d="M102 126C114 116 128 118 136 124" stroke="#5a4634" stroke-width="2.2" stroke-linecap="round"/>
    <path d="M102 98C94 88 90 78 88 70" stroke="#5a4634" stroke-width="1.8" stroke-linecap="round"/>
    <path d="M102 92C112 84 120 78 128 74" stroke="#5a4634" stroke-width="1.8" stroke-linecap="round"/>
    <path d="M102 78c-22 1-36 22-28 44 18-4 34-18 28-44z" fill="url(#leafA-4)"/>
    <path d="M102 78c22 1 37 21 29 44-18-3-35-18-29-44z" fill="url(#leafB-4)"/>
    <path d="M102 64c-11 0-19 10-16 22 11-2.5 19-9 16-22z" fill="#3f8a66"/>
    <path d="M78 118c-10 2-16 12-12 20 9-2 15-8 12-20z" fill="#45956e"/>
    <path d="M128 122c10 1 16 11 12 19-8-1.5-14-8-12-19z" fill="#45956e"/>
  </g>
  <g class="layer-dry sway">
    <path d="M126 108c10 4 12 15 4 20-5-5-8.5-12-4-20z" fill="#c4a84a"/>
    <path d="M80 112c-8 5-9 14-2 18 4-5 7-11 2-18z" fill="#b8954a"/>
    <path d="M114 84c5-1.5 8.5 2.5 7.5 7" stroke="#c4a84a" stroke-width="1.4" stroke-linecap="round"/>
  </g>
  <g class="layer-dead sway">
    <path d="M86 96c-9 2.5-12.5 11-7.5 16 5-2.5 8.5-8.5 7.5-16z" fill="#3a3228"/>
    <path d="M120 92c6.5 0 10 6 7.5 11" stroke="#2a221a" stroke-width="1.5" stroke-linecap="round"/>
  </g>
  <g class="layer-poison">
    <circle cx="92" cy="86" r="1.7" fill="#15110d"/>
    <circle cx="116" cy="80" r="1.4" fill="#1c1610"/>
    <circle cx="110" cy="106" r="1.3" fill="#15110d"/>
    <circle cx="94" cy="128" r="1.2" fill="#241c14"/>
  </g>

</svg>
