<svg xmlns="http://www.w3.org/2000/svg" viewBox="0 0 200 220" fill="none" aria-hidden="true">
  <defs>
    <radialGradient id="glow-5" cx="72%" cy="16%" r="42%">
      <stop offset="0%" stop-color="#ffe7a8" stop-opacity=".55"/>
      <stop offset="55%" stop-color="#ffe7a8" stop-opacity=".12"/>
      <stop offset="100%" stop-color="#ffe7a8" stop-opacity="0"/>
    </radialGradient>
    <linearGradient id="soilGrad-5" x1="0" y1="0" x2="0" y2="1">
      <stop offset="0%" stop-color="#8a7355"/>
      <stop offset="100%" stop-color="#5d4a34"/>
    </linearGradient>
    <linearGradient id="leafA-5" x1="0" y1="0" x2="1" y2="1">
      <stop offset="0%" stop-color="#4fa56f"/>
      <stop offset="100%" stop-color="#2d6e4c"/>
    </linearGradient>
    <linearGradient id="leafB-5" x1="0" y1="0" x2="0" y2="1">
      <stop offset="0%" stop-color="#67b87f"/>
      <stop offset="100%" stop-color="#357a55"/>
    </linearGradient>
    <filter id="soft-5" x="-20%" y="-20%" width="140%" height="140%">
      <feGaussianBlur stdDeviation="1.1"/>
    </filter>
  </defs>

  <g class="layer-light"><circle cx="144" cy="26" r="48" fill="url(#glow-5)"/></g>
  <g class="layer-soil">
    <ellipse cx="100" cy="192" rx="78" ry="9" fill="#2a241c" opacity=".10"/>
    <path fill="url(#soilGrad-5)" d="M34 178c16-20 42-31 66-31s50 11 66 31c-22 9-44 13-66 13s-44-4-66-13z"/>
    <path d="M48 176c14-12 34-19 52-19s38 7 52 19" stroke="#3f3428" stroke-opacity=".22" stroke-width="1.2" stroke-linecap="round"/>
    <path d="M62 183c11-4 24-6 38-6s27 2 38 6" stroke="#fff" stroke-opacity=".08" stroke-width="1" stroke-linecap="round"/>
  </g>
  <g class="layer-alive sway">
    <path d="M100 176C101 132 102 96 103 58" stroke="#4f3d2c" stroke-width="4.6" stroke-linecap="round"/>
    <path d="M103 120C84 104 68 106 54 116" stroke="#4f3d2c" stroke-width="2.8" stroke-linecap="round"/>
    <path d="M103 132C120 116 138 118 150 128" stroke="#4f3d2c" stroke-width="2.8" stroke-linecap="round"/>
    <path d="M103 96C90 78 86 62 84 48" stroke="#4f3d2c" stroke-width="2.2" stroke-linecap="round"/>
    <path d="M103 102C118 86 132 78 146 74" stroke="#4f3d2c" stroke-width="2.2" stroke-linecap="round"/>
    <path d="M103 148C90 142 78 144 68 150" stroke="#4f3d2c" stroke-width="2" stroke-linecap="round"/>
    <path d="M103 152C114 146 126 148 136 154" stroke="#4f3d2c" stroke-width="2" stroke-linecap="round"/>
    <ellipse cx="102" cy="64" rx="34" ry="30" fill="url(#leafA-5)"/>
    <ellipse cx="72" cy="90" rx="20" ry="16" fill="url(#leafB-5)"/>
    <ellipse cx="134" cy="92" rx="19" ry="15" fill="url(#leafB-5)"/>
    <ellipse cx="102" cy="40" rx="16" ry="13" fill="#2f9a62"/>
    <ellipse cx="86" cy="54" rx="11" ry="9" fill="#377a5b"/>
    <ellipse cx="122" cy="56" rx="11" ry="9" fill="#377a5b"/>
    <path d="M58 116c-9 3-14 12-10 19 8-2 13-8 10-19z" fill="#45956e"/>
    <path d="M148 126c9 2 14 11 10 18-7-1.5-12-8-10-18z" fill="#45956e"/>
  </g>
  <g class="layer-dry sway">
    <ellipse cx="124" cy="70" rx="12" ry="10" fill="#c4a84a"/>
    <ellipse cx="82" cy="76" rx="10" ry="8" fill="#b8954a"/>
    <path d="M140 108c6 2.5 7.5 9 2.5 12" stroke="#c4a84a" stroke-width="1.6" stroke-linecap="round"/>
    <ellipse cx="110" cy="48" rx="7" ry="5.5" fill="#d0b45a" opacity=".85"/>
  </g>
  <g class="layer-dead sway">
    <ellipse cx="142" cy="86" rx="9" ry="7" fill="#3a3228"/>
    <ellipse cx="66" cy="86" rx="8" ry="6" fill="#2a221a"/>
    <path d="M96 50c-4.5 0-7 3.5-5.5 7" stroke="#1c1610" stroke-width="1.4" stroke-linecap="round"/>
  </g>
  <g class="layer-poison">
    <circle cx="90" cy="52" r="1.8" fill="#120e0a"/>
    <circle cx="116" cy="46" r="1.5" fill="#1a1410"/>
    <circle cx="136" cy="88" r="1.5" fill="#120e0a"/>
    <circle cx="70" cy="88" r="1.3" fill="#1a1410"/>
    <circle cx="104" cy="74" r="1.2" fill="#241c14"/>
  </g>

</svg>
