<svg xmlns="http://www.w3.org/2000/svg" viewBox="0 0 200 220" fill="none" aria-hidden="true">
  <defs>
    <radialGradient id="glow-6" cx="72%" cy="16%" r="42%">
      <stop offset="0%" stop-color="#ffe7a8" stop-opacity=".55"/>
      <stop offset="55%" stop-color="#ffe7a8" stop-opacity=".12"/>
      <stop offset="100%" stop-color="#ffe7a8" stop-opacity="0"/>
    </radialGradient>
    <linearGradient id="soilGrad-6" x1="0" y1="0" x2="0" y2="1">
      <stop offset="0%" stop-color="#8a7355"/>
      <stop offset="100%" stop-color="#5d4a34"/>
    </linearGradient>
    <linearGradient id="leafA-6" x1="0" y1="0" x2="1" y2="1">
      <stop offset="0%" stop-color="#4fa56f"/>
      <stop offset="100%" stop-color="#2d6e4c"/>
    </linearGradient>
    <linearGradient id="leafB-6" x1="0" y1="0" x2="0" y2="1">
      <stop offset="0%" stop-color="#67b87f"/>
      <stop offset="100%" stop-color="#357a55"/>
    </linearGradient>
    <filter id="soft-6" x="-20%" y="-20%" width="140%" height="140%">
      <feGaussianBlur stdDeviation="1.1"/>
    </filter>
  </defs>

  <g class="layer-light"><circle cx="142" cy="24" r="52" fill="url(#glow-6)"/></g>
  <g class="layer-soil">
    <ellipse cx="100" cy="192" rx="78" ry="9" fill="#2a241c" opacity=".10"/>
    <path fill="url(#soilGrad-6)" d="M34 178c16-20 42-31 66-31s50 11 66 31c-22 9-44 13-66 13s-44-4-66-13z"/>
    <path d="M48 176c14-12 34-19 52-19s38 7 52 19" stroke="#3f3428" stroke-opacity=".22" stroke-width="1.2" stroke-linecap="round"/>
    <path d="M62 183c11-4 24-6 38-6s27 2 38 6" stroke="#fff" stroke-opacity=".08" stroke-width="1" stroke-linecap="round"/>
  </g>
  <g class="layer-alive sway">
    <path d="M100 178C101 128 103 84 104 42" stroke="#4a3828" stroke-width="5.4" stroke-linecap="round"/>
    <path d="M104 118C80 96 58 98 42 112" stroke="#4a3828" stroke-width="3.2" stroke-linecap="round"/>
    <path d="M104 130C126 108 148 110 164 124" stroke="#4a3828" stroke-width="3.2" stroke-linecap="round"/>
    <path d="M104 92C88 68 82 48 80 30" stroke="#4a3828" stroke-width="2.6" stroke-linecap="round"/>
    <path d="M104 98C122 76 140 66 158 62" stroke="#4a3828" stroke-width="2.6" stroke-linecap="round"/>
    <path d="M104 150C88 142 70 144 56 154" stroke="#4a3828" stroke-width="2.3" stroke-linecap="round"/>
    <path d="M104 156C118 148 136 150 150 160" stroke="#4a3828" stroke-width="2.3" stroke-linecap="round"/>
    <path d="M104 74C96 58 94 44 96 32" stroke="#4a3828" stroke-width="1.8" stroke-linecap="round"/>
    <path d="M104 78C114 64 124 54 136 48" stroke="#4a3828" stroke-width="1.8" stroke-linecap="round"/>
    <!-- canopy masses -->
    <path d="M104 28c-28-2-52 18-48 48 8-6 20-12 28-10-10 10-12 28-2 40 14-8 30-8 42 0 10-12 8-30-2-40 10-2 22 2 30 10 4-30-20-50-48-48z" fill="url(#leafA-6)"/>
    <path d="M56 100c-16 2-28 18-22 34 12-4 24-8 34-4-2-12 2-24 10-32-8-2-16 0-22 2z" fill="url(#leafB-6)"/>
    <path d="M152 104c16 0 28 16 22 32-12-3-24-7-34-2 2-12-2-24-10-32 8-2 16-0 22 2z" fill="url(#leafB-6)"/>
    <ellipse cx="104" cy="22" rx="18" ry="14" fill="#2f9a62"/>
    <ellipse cx="78" cy="42" rx="14" ry="11" fill="#377a5b"/>
    <ellipse cx="132" cy="44" rx="14" ry="11" fill="#377a5b"/>
    <ellipse cx="104" cy="52" rx="22" ry="16" fill="#45956e" opacity=".85"/>
    <path d="M48 150c-10 4-15 14-10 22 9-2 15-9 10-22z" fill="#3f8a66"/>
    <path d="M158 156c10 3 15 13 10 21-8-1.5-14-9-10-21z" fill="#3f8a66"/>
  </g>
  <g class="layer-dry sway">
    <ellipse cx="128" cy="38" rx="13" ry="10" fill="#c4a84a"/>
    <ellipse cx="76" cy="56" rx="11" ry="9" fill="#b8954a"/>
    <ellipse cx="156" cy="92" rx="10" ry="8" fill="#c4a84a"/>
    <path d="M54 118c-5 4-6 10-2.5 13" stroke="#b8954a" stroke-width="1.6" stroke-linecap="round"/>
    <ellipse cx="112" cy="30" rx="8" ry="6" fill="#d0b45a" opacity=".8"/>
  </g>
  <g class="layer-dead sway">
    <ellipse cx="160" cy="84" rx="10" ry="8" fill="#2a221a"/>
    <ellipse cx="48" cy="96" rx="9" ry="7" fill="#1c1610"/>
    <ellipse cx="118" cy="24" rx="7" ry="5" fill="#3a3228"/>
    <path d="M94 66c-3.5 2.5-4.5 6-2.5 8.5" stroke="#15110d" stroke-width="1.5" stroke-linecap="round"/>
  </g>
  <g class="layer-poison">
    <circle cx="88" cy="34" r="1.9" fill="#120e0a"/>
    <circle cx="120" cy="30" r="1.6" fill="#1a1410"/>
    <circle cx="146" cy="78" r="1.6" fill="#120e0a"/>
    <circle cx="60" cy="82" r="1.4" fill="#1a1410"/>
    <circle cx="104" cy="58" r="1.3" fill="#241c14"/>
    <circle cx="134" cy="112" r="1.2" fill="#15110d"/>
    <circle cx="74" cy="120" r="1.2" fill="#1a1410"/>
  </g>

</svg>
